<?xml version="1.0" encoding="UTF-8"?><svg xmlns="http://www.w3.org/2000/svg" xmlns:xlink="http://www.w3.org/1999/xlink" fill-opacity="1" color-rendering="auto" color-interpolation="auto" text-rendering="auto" stroke="black" stroke-linecap="square" width="924" stroke-miterlimit="10" shape-rendering="auto" stroke-opacity="1" fill="black" stroke-dasharray="none" font-weight="normal" stroke-width="1" height="553" font-family="'Dialog'" font-style="normal" stroke-linejoin="miter" font-size="12px" stroke-dashoffset="0" image-rendering="auto">
  <!--Generated by ySVG 2.5-->
  <defs id="genericDefs"/>
  <g>
    <defs id="defs1">
      <clipPath clipPathUnits="userSpaceOnUse" id="clipPath1">
        <path d="M0 0 L924 0 L924 553 L0 553 L0 0 Z"/>
      </clipPath>
      <clipPath clipPathUnits="userSpaceOnUse" id="clipPath2">
        <path d="M-29.6685 -24.8736 L930.6685 -24.8736 L930.6685 549.8736 L-29.6685 549.8736 L-29.6685 -24.8736 Z"/>
      </clipPath>
    </defs>
    <g fill="white" stroke="white">
      <path d="M12.1191 542 L12.1191 533.3281 L14.4805 533.3281 Q16.0508 533.3281 16.7363 533.8584 Q17.4219 534.3887 17.4219 535.6016 Q17.4219 536.9844 16.4844 537.7695 Q15.5469 538.5547 13.8828 538.5547 L13.3379 538.5547 L13.3379 542 ZM13.3379 537.623 L13.8359 537.623 Q14.9316 537.623 15.5293 537.1191 Q16.127 536.6152 16.127 535.6953 Q16.127 534.916 15.6582 534.582 Q15.1895 534.248 14.0938 534.248 L13.3379 534.248 ZM21.2773 542.1465 Q19.9121 542.1465 19.0977 541.2412 Q18.2832 540.3359 18.2832 538.8184 Q18.2832 537.2832 19.1006 536.3896 Q19.918 535.4961 21.3184 535.4961 Q22.7188 535.4961 23.5361 536.3896 Q24.3535 537.2832 24.3535 538.8066 Q24.3535 540.3652 23.5332 541.2559 Q22.7129 542.1465 21.2773 542.1465 ZM21.2949 541.2793 Q23.1289 541.2793 23.1289 538.8066 Q23.1289 536.3633 21.3184 536.3633 Q19.5137 536.3633 19.5137 538.8184 Q19.5137 541.2793 21.2949 541.2793 ZM26.8965 542 L25.0742 535.6367 L26.2051 535.6367 L27.5996 540.5645 L29.1055 535.6367 L30.2598 535.6367 L31.5781 540.5645 L33.1777 535.6367 L34.168 535.6367 L32.0938 542 L30.9336 542 L29.5859 537.0723 L28.0625 542 ZM40.0684 541.7949 Q38.9082 542.1465 38.082 542.1465 Q36.6758 542.1465 35.7881 541.2119 Q34.9004 540.2773 34.9004 538.7891 Q34.9004 537.3418 35.6826 536.416 Q36.4648 535.4902 37.6836 535.4902 Q38.8379 535.4902 39.4678 536.3105 Q40.0977 537.1309 40.0977 538.6426 L40.0918 539 L36.0781 539 Q36.3301 541.2676 38.2988 541.2676 Q39.0195 541.2676 40.0684 540.8809 ZM36.1309 538.1328 L38.9375 538.1328 Q38.9375 536.3574 37.6133 536.3574 Q36.2832 536.3574 36.1309 538.1328 ZM42.0898 542 L42.0898 535.6367 L43.2441 535.6367 L43.2441 536.832 Q43.9297 535.4961 45.2363 535.4961 Q45.4121 535.4961 45.6055 535.5254 L45.6055 536.6035 Q45.3066 536.5039 45.0781 536.5039 Q43.9824 536.5039 43.2441 537.8047 L43.2441 542 ZM51.6641 541.7949 Q50.5039 542.1465 49.6777 542.1465 Q48.2715 542.1465 47.3838 541.2119 Q46.4961 540.2773 46.4961 538.7891 Q46.4961 537.3418 47.2783 536.416 Q48.0605 535.4902 49.2793 535.4902 Q50.4336 535.4902 51.0635 536.3105 Q51.6934 537.1309 51.6934 538.6426 L51.6875 539 L47.6738 539 Q47.9258 541.2676 49.8945 541.2676 Q50.6152 541.2676 51.6641 540.8809 ZM47.7266 538.1328 L50.5332 538.1328 Q50.5332 536.3574 49.209 536.3574 Q47.8789 536.3574 47.7266 538.1328 ZM57.7695 542 L57.7695 540.8047 Q57.0664 542.1465 55.6484 542.1465 Q54.5 542.1465 53.8408 541.3086 Q53.1816 540.4707 53.1816 539.0176 Q53.1816 537.4297 53.9287 536.4629 Q54.6758 535.4961 55.8945 535.4961 Q57.0254 535.4961 57.7695 536.3633 L57.7695 532.748 L58.9297 532.748 L58.9297 542 ZM57.7695 537.1543 Q56.873 536.3633 56.0703 536.3633 Q54.4121 536.3633 54.4121 538.9004 Q54.4121 541.1328 55.8887 541.1328 Q56.8496 541.1328 57.7695 540.084 ZM65.0352 542.0703 L65.0352 532.748 L66.1895 532.748 L66.1895 536.832 Q66.8984 535.4961 68.3164 535.4961 Q69.4648 535.4961 70.124 536.334 Q70.7832 537.1719 70.7832 538.625 Q70.7832 540.207 70.0361 541.1768 Q69.2891 542.1465 68.0703 542.1465 Q66.9395 542.1465 66.1895 541.2793 L66.0488 542.0703 ZM66.1895 540.4824 Q67.0801 541.2793 67.8887 541.2793 Q69.5527 541.2793 69.5527 538.7422 Q69.5527 536.5039 68.0762 536.5039 Q67.1094 536.5039 66.1895 537.5527 ZM72.957 544.3145 L73.9883 542 L71.5273 535.6367 L72.7754 535.6367 L74.5977 540.4297 L76.543 535.6367 L77.6328 535.6367 L74.1582 544.3145 ZM83.0234 544.3145 L84.0547 542 L81.5938 535.6367 L82.8418 535.6367 L84.6641 540.4297 L86.6094 535.6367 L87.6992 535.6367 L84.2246 544.3145 ZM88.8887 542 L88.8887 533.3281 L93.7344 533.3281 L93.7344 534.248 L90.1191 534.248 L90.1191 537.1543 L93.1543 537.1543 L93.1543 538.0625 L90.1191 538.0625 L90.1191 542 ZM95.3574 542 L95.3574 535.6367 L96.5117 535.6367 L96.5117 542 ZM95.3574 534.4824 L95.3574 533.3281 L96.5117 533.3281 L96.5117 534.4824 ZM98.8262 542 L98.8262 532.748 L99.9805 532.748 L99.9805 542 ZM106.959 541.7949 Q105.7988 542.1465 104.9727 542.1465 Q103.5664 542.1465 102.6787 541.2119 Q101.791 540.2773 101.791 538.7891 Q101.791 537.3418 102.5732 536.416 Q103.3555 535.4902 104.5742 535.4902 Q105.7285 535.4902 106.3584 536.3105 Q106.9883 537.1309 106.9883 538.6426 L106.9824 539 L102.9688 539 Q103.2207 541.2676 105.1895 541.2676 Q105.9102 541.2676 106.959 540.8809 ZM103.0215 538.1328 L105.8281 538.1328 Q105.8281 536.3574 104.5039 536.3574 Q103.1738 536.3574 103.0215 538.1328 ZM110.668 542.1465 Q109.877 542.1465 108.7461 541.7773 L108.7461 540.7168 Q109.877 541.2793 110.7148 541.2793 Q111.2129 541.2793 111.541 541.0098 Q111.8691 540.7402 111.8691 540.3359 Q111.8691 539.7441 110.9492 539.3574 L110.2754 539.0703 Q108.7812 538.4492 108.7812 537.2832 Q108.7812 536.4512 109.3701 535.9736 Q109.959 535.4961 110.9844 535.4961 Q111.5176 535.4961 112.3027 535.6426 L112.543 535.6895 L112.543 536.6504 Q111.5762 536.3633 111.0078 536.3633 Q109.8945 536.3633 109.8945 537.1719 Q109.8945 537.6934 110.7383 538.0508 L111.2949 538.2852 Q112.2383 538.6836 112.6309 539.126 Q113.0234 539.5684 113.0234 540.2305 Q113.0234 541.0684 112.3613 541.6074 Q111.6992 542.1465 110.668 542.1465 Z" stroke="none" clip-path="url(#clipPath1)"/>
    </g>
    <g fill="rgb(255,255,204)" transform="matrix(0.9622,0,0,0.9622,28.5459,23.9324)" stroke="rgb(255,255,204)">
      <rect x="545.5" width="59" height="29.733" y="435.1335" clip-path="url(#clipPath2)" stroke="none"/>
    </g>
    <g fill="gray" stroke-miterlimit="1.45" transform="matrix(0.9622,0,0,0.9622,28.5459,23.9324)" stroke-linecap="butt" stroke="gray">
      <rect fill="none" x="545.5" width="59" height="29.733" y="435.1335" clip-path="url(#clipPath2)"/>
    </g>
    <g stroke-miterlimit="1.45" font-size="13px" font-family="'Inter'" transform="matrix(0.9622,0,0,0.9622,28.5459,23.9324)" stroke-linecap="butt">
      <text x="554.5" xml:space="preserve" y="453.7273" clip-path="url(#clipPath2)" stroke="none">games</text>
    </g>
    <g fill="rgb(255,255,204)" transform="matrix(0.9622,0,0,0.9622,28.5459,23.9324)" stroke="rgb(255,255,204)">
      <rect x="543.5" width="63" height="29.733" y="510.1335" clip-path="url(#clipPath2)" stroke="none"/>
    </g>
    <g fill="gray" stroke-miterlimit="1.45" transform="matrix(0.9622,0,0,0.9622,28.5459,23.9324)" stroke-linecap="butt" stroke="gray">
      <rect fill="none" x="543.5" width="63" height="29.733" y="510.1335" clip-path="url(#clipPath2)"/>
    </g>
    <g stroke-miterlimit="1.45" font-size="13px" font-family="'Inter'" transform="matrix(0.9622,0,0,0.9622,28.5459,23.9324)" stroke-linecap="butt">
      <text x="552.5" xml:space="preserve" y="528.7273" clip-path="url(#clipPath2)" stroke="none">betting</text>
    </g>
    <g fill="rgb(255,255,204)" transform="matrix(0.9622,0,0,0.9622,28.5459,23.9324)" stroke="rgb(255,255,204)">
      <rect x="124.5" width="51" height="29.733" y="60.1335" clip-path="url(#clipPath2)" stroke="none"/>
    </g>
    <g fill="gray" stroke-miterlimit="1.45" transform="matrix(0.9622,0,0,0.9622,28.5459,23.9324)" stroke-linecap="butt" stroke="gray">
      <rect fill="none" x="124.5" width="51" height="29.733" y="60.1335" clip-path="url(#clipPath2)"/>
    </g>
    <g stroke-miterlimit="1.45" font-size="13px" font-family="'Inter'" transform="matrix(0.9622,0,0,0.9622,28.5459,23.9324)" stroke-linecap="butt">
      <text x="133.5" xml:space="preserve" y="78.7273" clip-path="url(#clipPath2)" stroke="none">clubs</text>
    </g>
    <g fill="rgb(255,255,204)" transform="matrix(0.9622,0,0,0.9622,28.5459,23.9324)" stroke="rgb(255,255,204)">
      <rect x="219.5" width="111" height="29.733" y="310.1335" clip-path="url(#clipPath2)" stroke="none"/>
    </g>
    <g fill="gray" stroke-miterlimit="1.45" transform="matrix(0.9622,0,0,0.9622,28.5459,23.9324)" stroke-linecap="butt" stroke="gray">
      <rect fill="none" x="219.5" width="111" height="29.733" y="310.1335" clip-path="url(#clipPath2)"/>
    </g>
    <g stroke-miterlimit="1.45" font-size="13px" font-family="'Inter'" transform="matrix(0.9622,0,0,0.9622,28.5459,23.9324)" stroke-linecap="butt">
      <text x="228.5" xml:space="preserve" y="328.7273" clip-path="url(#clipPath2)" stroke="none">club_attributes</text>
    </g>
    <g fill="rgb(255,255,204)" transform="matrix(0.9622,0,0,0.9622,28.5459,23.9324)" stroke="rgb(255,255,204)">
      <rect x="600.5" width="99" height="29.733" y="60.1335" clip-path="url(#clipPath2)" stroke="none"/>
    </g>
    <g fill="gray" stroke-miterlimit="1.45" transform="matrix(0.9622,0,0,0.9622,28.5459,23.9324)" stroke-linecap="butt" stroke="gray">
      <rect fill="none" x="600.5" width="99" height="29.733" y="60.1335" clip-path="url(#clipPath2)"/>
    </g>
    <g stroke-miterlimit="1.45" font-size="13px" font-family="'Inter'" transform="matrix(0.9622,0,0,0.9622,28.5459,23.9324)" stroke-linecap="butt">
      <text x="609.5" xml:space="preserve" y="78.7273" clip-path="url(#clipPath2)" stroke="none">competitions</text>
    </g>
    <g fill="rgb(255,255,204)" transform="matrix(0.9622,0,0,0.9622,28.5459,23.9324)" stroke="rgb(255,255,204)">
      <rect x="299.5" width="101" height="29.733" y="235.1335" clip-path="url(#clipPath2)" stroke="none"/>
    </g>
    <g fill="gray" stroke-miterlimit="1.45" transform="matrix(0.9622,0,0,0.9622,28.5459,23.9324)" stroke-linecap="butt" stroke="gray">
      <rect fill="none" x="299.5" width="101" height="29.733" y="235.1335" clip-path="url(#clipPath2)"/>
    </g>
    <g stroke-miterlimit="1.45" font-size="13px" font-family="'Inter'" transform="matrix(0.9622,0,0,0.9622,28.5459,23.9324)" stroke-linecap="butt">
      <text x="308.5" xml:space="preserve" y="253.7273" clip-path="url(#clipPath2)" stroke="none">game_events</text>
    </g>
    <g fill="rgb(255,255,204)" transform="matrix(0.9622,0,0,0.9622,28.5459,23.9324)" stroke="rgb(255,255,204)">
      <rect x="398.5" width="103" height="29.733" y="360.1335" clip-path="url(#clipPath2)" stroke="none"/>
    </g>
    <g fill="gray" stroke-miterlimit="1.45" transform="matrix(0.9622,0,0,0.9622,28.5459,23.9324)" stroke-linecap="butt" stroke="gray">
      <rect fill="none" x="398.5" width="103" height="29.733" y="360.1335" clip-path="url(#clipPath2)"/>
    </g>
    <g stroke-miterlimit="1.45" font-size="13px" font-family="'Inter'" transform="matrix(0.9622,0,0,0.9622,28.5459,23.9324)" stroke-linecap="butt">
      <text x="407.5" xml:space="preserve" y="378.7273" clip-path="url(#clipPath2)" stroke="none">game_lineups</text>
    </g>
    <g fill="rgb(255,255,204)" transform="matrix(0.9622,0,0,0.9622,28.5459,23.9324)" stroke="rgb(255,255,204)">
      <rect x="-19.5" width="89" height="29.733" y="60.1335" clip-path="url(#clipPath2)" stroke="none"/>
    </g>
    <g fill="gray" stroke-miterlimit="1.45" transform="matrix(0.9622,0,0,0.9622,28.5459,23.9324)" stroke-linecap="butt" stroke="gray">
      <rect fill="none" x="-19.5" width="89" height="29.733" y="60.1335" clip-path="url(#clipPath2)"/>
    </g>
    <g stroke-miterlimit="1.45" font-size="13px" font-family="'Inter'" transform="matrix(0.9622,0,0,0.9622,28.5459,23.9324)" stroke-linecap="butt">
      <text x="-10.5" xml:space="preserve" y="78.7273" clip-path="url(#clipPath2)" stroke="none">game_stats</text>
    </g>
    <g fill="rgb(255,255,204)" transform="matrix(0.9622,0,0,0.9622,28.5459,23.9324)" stroke="rgb(255,255,204)">
      <rect x="779" width="142" height="29.733" y="-14.8665" clip-path="url(#clipPath2)" stroke="none"/>
    </g>
    <g fill="gray" stroke-miterlimit="1.45" transform="matrix(0.9622,0,0,0.9622,28.5459,23.9324)" stroke-linecap="butt" stroke="gray">
      <rect fill="none" x="779" width="142" height="29.733" y="-14.8665" clip-path="url(#clipPath2)"/>
    </g>
    <g stroke-miterlimit="1.45" font-size="13px" font-family="'Inter'" transform="matrix(0.9622,0,0,0.9622,28.5459,23.9324)" stroke-linecap="butt">
      <text x="788" xml:space="preserve" y="3.7273" clip-path="url(#clipPath2)" stroke="none">player_appearances</text>
    </g>
    <g fill="rgb(255,255,204)" transform="matrix(0.9622,0,0,0.9622,28.5459,23.9324)" stroke="rgb(255,255,204)">
      <rect x="307" width="86" height="29.733" y="160.1335" clip-path="url(#clipPath2)" stroke="none"/>
    </g>
    <g fill="gray" stroke-miterlimit="1.45" transform="matrix(0.9622,0,0,0.9622,28.5459,23.9324)" stroke-linecap="butt" stroke="gray">
      <rect fill="none" x="307" width="86" height="29.733" y="160.1335" clip-path="url(#clipPath2)"/>
    </g>
    <g stroke-miterlimit="1.45" font-size="13px" font-family="'Inter'" transform="matrix(0.9622,0,0,0.9622,28.5459,23.9324)" stroke-linecap="butt">
      <text x="316" xml:space="preserve" y="178.7273" clip-path="url(#clipPath2)" stroke="none">player_info</text>
    </g>
    <g fill="rgb(255,255,204)" transform="matrix(0.9622,0,0,0.9622,28.5459,23.9324)" stroke="rgb(255,255,204)">
      <rect x="274.5" width="151" height="29.733" y="60.1335" clip-path="url(#clipPath2)" stroke="none"/>
    </g>
    <g fill="gray" stroke-miterlimit="1.45" transform="matrix(0.9622,0,0,0.9622,28.5459,23.9324)" stroke-linecap="butt" stroke="gray">
      <rect fill="none" x="274.5" width="151" height="29.733" y="60.1335" clip-path="url(#clipPath2)"/>
    </g>
    <g stroke-miterlimit="1.45" font-size="13px" font-family="'Inter'" transform="matrix(0.9622,0,0,0.9622,28.5459,23.9324)" stroke-linecap="butt">
      <text x="283.5" xml:space="preserve" y="78.7273" clip-path="url(#clipPath2)" stroke="none">player_market_values</text>
    </g>
    <g fill="gray" stroke-miterlimit="1.45" transform="matrix(0.9622,0,0,0.9622,28.5459,23.9324)" stroke-linecap="butt" stroke="gray">
      <path fill="none" d="M575 510.0893 L575 472.9107" clip-path="url(#clipPath2)"/>
    </g>
    <g fill="gray" stroke-miterlimit="1.45" transform="matrix(0.9622,0,0,0.9622,28.5459,23.9324)" stroke-linecap="butt" stroke="gray">
      <path d="M575 464.9107 L570 476.9107 L575 473.9107 L580 476.9107 Z" stroke="none" clip-path="url(#clipPath2)"/>
      <path fill="none" d="M219.4719 325 L162 325 L162 97.8952" clip-path="url(#clipPath2)"/>
      <path d="M162 89.8952 L157 101.8952 L162 98.8952 L167 101.8952 Z" clip-path="url(#clipPath2)" stroke="none"/>
      <path fill="none" d="M170 60.0992 L170 25 L650 25 L650 52.0992" clip-path="url(#clipPath2)"/>
      <path d="M650 60.0992 L655 48.0992 L650 51.0992 L645 48.0992 Z" clip-path="url(#clipPath2)" stroke="none"/>
      <path fill="none" d="M299.4674 250 L166 250 L166 97.9056" clip-path="url(#clipPath2)"/>
      <path d="M166 89.9056 L161 101.9056 L166 98.9056 L171 101.9056 Z" clip-path="url(#clipPath2)" stroke="none"/>
      <path fill="none" d="M398.4706 375 L158 375 L158 97.9013" clip-path="url(#clipPath2)"/>
      <path d="M158 89.9013 L153 101.9013 L158 98.9013 L163 101.9013 Z" clip-path="url(#clipPath2)" stroke="none"/>
      <path fill="none" d="M69.5269 75 L116.4732 75" clip-path="url(#clipPath2)"/>
      <path d="M124.4732 75 L112.4732 70 L115.4732 75 L112.4732 80 Z" clip-path="url(#clipPath2)" stroke="none"/>
      <path fill="none" d="M69.5269 84 L116.4732 84" clip-path="url(#clipPath2)"/>
      <path d="M124.4732 84 L112.4732 79 L115.4732 84 L112.4732 89 Z" clip-path="url(#clipPath2)" stroke="none"/>
      <path fill="none" d="M545.4517 447 L150 447 L150 97.9101" clip-path="url(#clipPath2)"/>
      <path d="M150 89.9101 L145 101.9101 L150 98.9101 L155 101.9101 Z" clip-path="url(#clipPath2)" stroke="none"/>
      <path fill="none" d="M545.4522 444 L154 444 L154 97.9097" clip-path="url(#clipPath2)"/>
      <path d="M154 89.9097 L149 101.9097 L154 98.9097 L159 101.9097 Z" clip-path="url(#clipPath2)" stroke="none"/>
      <path fill="none" d="M778.9622 9 L160 9 L160 52.0835" clip-path="url(#clipPath2)"/>
      <path d="M160 60.0835 L165 48.0835 L160 51.0835 L155 48.0835 Z" clip-path="url(#clipPath2)" stroke="none"/>
      <path fill="none" d="M778.9616 0 L150 0 L150 52.1041" clip-path="url(#clipPath2)"/>
      <path d="M150 60.1041 L155 48.1041 L150 51.1041 L145 48.1041 Z" clip-path="url(#clipPath2)" stroke="none"/>
      <path fill="none" d="M306.9666 175 L170 175 L170 97.9081" clip-path="url(#clipPath2)"/>
      <path d="M170 89.9081 L165 101.9081 L170 98.9081 L175 101.9081 Z" clip-path="url(#clipPath2)" stroke="none"/>
      <path fill="none" d="M274.4517 75 L183.5483 75" clip-path="url(#clipPath2)"/>
      <path d="M175.5483 75 L187.5483 80 L184.5483 75 L187.5483 70 Z" clip-path="url(#clipPath2)" stroke="none"/>
      <path fill="none" d="M604.5444 441 L650 441 L650 97.9094" clip-path="url(#clipPath2)"/>
      <path d="M650 89.9094 L645 101.9094 L650 98.9094 L655 101.9094 Z" clip-path="url(#clipPath2)" stroke="none"/>
      <path fill="none" d="M800 14.8959 L800 75 L707.5491 75" clip-path="url(#clipPath2)"/>
      <path d="M699.5491 75 L711.5491 80 L708.5491 75 L711.5491 70 Z" clip-path="url(#clipPath2)" stroke="none"/>
      <path fill="none" d="M375 160.0992 L375 125 L625 125 L625 97.9008" clip-path="url(#clipPath2)"/>
      <path d="M625 89.9008 L620 101.9008 L625 98.9008 L630 101.9008 Z" clip-path="url(#clipPath2)" stroke="none"/>
      <path fill="none" d="M425.5427 75 L592.4573 75" clip-path="url(#clipPath2)"/>
      <path d="M600.4573 75 L588.4573 70 L591.4573 75 L588.4573 80 Z" clip-path="url(#clipPath2)" stroke="none"/>
      <path fill="none" d="M400.5426 250 L575 250 L575 427.0883" clip-path="url(#clipPath2)"/>
      <path d="M575 435.0883 L580 423.0883 L575 426.0883 L570 423.0883 Z" clip-path="url(#clipPath2)" stroke="none"/>
      <path fill="none" d="M325 235.0893 L325 197.9107" clip-path="url(#clipPath2)"/>
      <path d="M325 189.9107 L320 201.9107 L325 198.9107 L330 201.9107 Z" clip-path="url(#clipPath2)" stroke="none"/>
      <path fill="none" d="M350 235.0893 L350 197.9107" clip-path="url(#clipPath2)"/>
      <path d="M350 189.9107 L345 201.9107 L350 198.9107 L355 201.9107 Z" clip-path="url(#clipPath2)" stroke="none"/>
      <path fill="none" d="M375 235.0893 L375 197.9107" clip-path="url(#clipPath2)"/>
      <path d="M375 189.9107 L370 201.9107 L375 198.9107 L380 201.9107 Z" clip-path="url(#clipPath2)" stroke="none"/>
      <path fill="none" d="M450 389.9164 L450 441 L537.4534 441" clip-path="url(#clipPath2)"/>
      <path d="M545.4534 441 L533.4534 436 L536.4534 441 L533.4534 446 Z" clip-path="url(#clipPath2)" stroke="none"/>
      <path fill="none" d="M450 360.0905 L450 255 Q455 255 455 250 Q455 245 450 245 L450 184 L401.0278 184" clip-path="url(#clipPath2)"/>
      <path d="M393.0278 184 L405.0278 189 L402.0278 184 L405.0278 179 Z" clip-path="url(#clipPath2)" stroke="none"/>
      <path fill="none" d="M25 89.9105 L25 450 L537.4683 450" clip-path="url(#clipPath2)"/>
      <path d="M545.4683 450 L533.4683 445 L536.4683 450 L533.4683 455 Z" clip-path="url(#clipPath2)" stroke="none"/>
      <path fill="none" d="M850 14.8931 L850 450 L612.53 450" clip-path="url(#clipPath2)"/>
      <path d="M604.53 450 L616.53 455 L613.53 450 L616.53 445 Z" clip-path="url(#clipPath2)" stroke="none"/>
      <path fill="none" d="M825 14.9056 L825 175 L655 175 Q655 170 650 170 Q645 170 645 175 L401.0264 175" clip-path="url(#clipPath2)"/>
      <path d="M393.0264 175 L405.0264 180 L402.0264 175 L405.0264 170 Z" clip-path="url(#clipPath2)" stroke="none"/>
      <path fill="none" d="M350 89.9008 L350 152.0992" clip-path="url(#clipPath2)"/>
      <path d="M350 160.0992 L355 148.0992 L350 151.0992 L345 148.0992 Z" clip-path="url(#clipPath2)" stroke="none"/>
    </g>
  </g>
</svg>
